<svg width="34" height="34" viewBox="0 0 34 34" fill="none" xmlns="http://www.w3.org/2000/svg">
<path d="M29.1253 14.2053H29.1227C29.1227 14.1867 29.1253 14.1681 29.1253 14.1495C29.1253 11.6128 27.0694 9.55418 24.53 9.55418C24.2033 9.55418 23.8845 9.58871 23.5791 9.65512C22.668 7.4398 20.4925 5.87793 17.9478 5.87793C16.038 5.87793 14.3353 6.7598 13.2197 8.13574C12.4791 7.75909 11.66 7.56251 10.8291 7.56199C8.07986 7.56199 5.82205 9.65512 5.55908 12.3353C2.5708 12.4946 0.172206 14.9437 0.132362 17.9851C0.0898623 21.1514 2.62658 23.7545 5.79283 23.7943C6.03986 23.797 6.27892 23.7811 6.51799 23.7518C7.74252 26.3337 10.3695 28.1187 13.4163 28.1187C15.2544 28.1187 16.9385 27.4679 18.256 26.3868C19.2627 27.1332 20.5058 27.5795 21.8552 27.5795C24.623 27.5795 26.9525 25.7228 27.6777 23.1861C28.1345 23.3375 28.6206 23.4225 29.128 23.4225C31.6727 23.4225 33.7366 21.3586 33.7366 18.8139C33.7339 16.2692 31.6727 14.2053 29.1253 14.2053Z" fill="#E3EBEE"/>
<path d="M31.8353 15.085C32.8793 16.1395 32.1408 18.5567 31.4236 19.3456C30.0105 20.8942 27.418 20.5329 26.3768 20.3098C26.0952 20.2487 26.05 20.27 25.9571 20.3257C25.8747 20.3762 25.8375 20.4559 25.7472 20.6445C25.4125 21.367 24.5466 22.7668 22.7191 23.33C20.8146 23.917 19.0189 23.0218 18.1796 22.4879C17.8608 22.2861 17.8475 22.2807 17.7041 22.2834C17.558 22.2861 17.4146 22.3923 17.2419 22.5278C16.4822 23.1254 14.7477 24.18 12.0729 24.0259C9.45113 23.8745 7.95035 22.2595 7.43504 21.4281C7.33676 21.2687 7.23051 21.1359 7.10832 21.1226C6.96754 21.1093 6.81082 21.2528 6.69394 21.3696C5.57832 22.4561 2.06676 22.7828 0.90332 20.9314C2.08801 22.8306 3.91816 23.7709 5.79613 23.7948C6.04316 23.7975 6.28223 23.7815 6.52129 23.7523C7.74582 26.3342 10.3729 28.1192 13.4196 28.1192C15.2577 28.1192 16.9418 27.4684 18.2593 26.3873C19.266 27.1337 20.5091 27.58 21.8585 27.58C24.6263 27.58 26.9558 25.7232 27.681 23.1865C28.1378 23.3379 28.6239 23.4229 29.1313 23.4229C31.676 23.4229 33.7399 21.359 33.7399 18.8143C33.7346 17.4596 33.0546 15.9296 31.8353 15.085Z" fill="#B9CDD2"/>
</svg>
