<?xml version="1.0" encoding="UTF-8"?>
<svg width="55" height="55" viewBox="0 0 55 55" fill="none" xmlns="http://www.w3.org/2000/svg">
    <path d="M13.75 10.5956C13.75 10.5956 14.7942 7.45892 17.2563 5.49095C17.7286 5.11345 18.6214 4.73494 19.7562 4.36968C28.4465 1.57242 38.2421 3.78327 44.9702 9.95408C46.0266 10.923 46.881 11.8367 47.3611 12.6037C48.9467 15.1389 51.3606 23.4261 49.6805 27.9507C45.6758 38.7273 35.286 37.4812 32.5789 36.8667C31.3071 36.5788 28.209 35.7581 28.209 35.7581C28.209 35.7581 21.1321 41.6019 12.6157 37.1203C6.13167 33.7085 6.93518 28.6081 6.93518 28.6081C6.93518 28.6081 2.56956 24.2425 4.46018 18.1624C6.73752 10.8406 13.75 10.5956 13.75 10.5956Z" fill="#489581"/>
    <path d="M16.7705 30.4947C16.7705 30.4947 18.1885 30.4131 18.7729 30.2455C19.3572 30.0779 20.1479 29.5795 20.1479 29.5795C20.1479 29.5795 25.6264 35.3115 26.1936 35.7928C26.7479 36.2611 27.401 29.1197 27.401 29.1197C27.401 29.1197 28.6514 29.3131 29.8201 29.1283C31.3584 28.8834 32.4068 28.3936 32.4068 28.3936C32.4068 28.3936 31.6592 32.7893 31.367 34.4564C31.1822 35.5264 31.1178 38.4998 31.1178 38.4998L27.1131 41.8342L24.0666 39.7889C24.0666 39.7889 24.058 38.9854 23.6068 38.4396C22.2061 36.7467 16.7705 30.4947 16.7705 30.4947ZM30.7396 40.2959L33.7861 36.6264C33.7861 36.6264 34.8689 36.708 35.6639 36.708C36.4545 36.708 37.8338 36.5404 37.8338 36.5404C37.8338 36.5404 35.333 39.9178 33.9967 41.585C32.6604 43.2521 30.9115 45.3404 30.9115 45.3404L29.2443 40.5021L30.7396 40.2959Z" fill="#6D4B41"/>
    <path d="M28.5738 37.374C27.3278 37.4857 24.0707 39.7931 24.0707 39.7931C24.0707 39.7931 24.2383 43.7119 24.1137 45.9247C23.9891 48.1376 23.1168 51.7513 23.9203 52.6665C24.6164 53.4572 30.4688 53.6076 31.341 52.688C32.2176 51.7685 31.3668 47.9701 31.3668 45.5079C31.3668 43.0458 31.1176 38.4997 31.1176 38.4997C31.1176 38.4997 29.9918 37.2494 28.5738 37.374Z" fill="#865B50"/>
</svg> 